<svg width="20" height="20" viewBox="0 0 20 20" fill="none" xmlns="http://www.w3.org/2000/svg">
<path d="M16.7018 1.14706H15.9853V0.573529C15.9853 0.256941 15.7287 0 15.4118 0C15.0948 0 14.8382 0.256941 14.8382 0.573529V1.14706H5.66177V0.573529C5.66177 0.256941 5.40521 0 5.08824 0C4.77127 0 4.51471 0.256941 4.51471 0.573529V1.14706H3.79818C1.97971 1.14706 0.5 2.62638 0.5 4.44524V16.2018C0.5 18.0203 1.97971 19.5 3.79818 19.5H16.7018C18.5207 19.5 20 18.0203 20 16.2018V4.44524C20 2.62638 18.5207 1.14706 16.7018 1.14706ZM18.8529 16.2018C18.8529 17.3879 17.8883 18.3529 16.7018 18.3529H3.79818C2.61212 18.3529 1.64706 17.3879 1.64706 16.2018V6.88235H18.8529V16.2018ZM18.8529 5.73529H1.64706V4.44524C1.64706 3.25918 2.61212 2.29412 3.79818 2.29412H4.51471V3.44118C4.51471 3.75776 4.77165 4.01471 5.08824 4.01471C5.40482 4.01471 5.66177 3.75776 5.66177 3.44118V2.29412H14.8382V3.44118C14.8382 3.75776 15.0952 4.01471 15.4118 4.01471C15.7284 4.01471 15.9853 3.75776 15.9853 3.44118V2.29412H16.7018C17.8883 2.29412 18.8529 3.25918 18.8529 4.44524V5.73529Z" fill="#576ACA"/>
<path d="M1.64746 6.88232V16.2018C1.64746 17.3879 2.61252 18.3529 3.79858 18.3529H16.7022C17.8887 18.3529 18.8533 17.3879 18.8533 16.2018V6.88232H1.64746ZM5.66714 15.6252C5.66714 15.8366 5.49623 16.0076 5.28478 16.0076H3.59937C3.38793 16.0076 3.21702 15.8366 3.21702 15.6252V13.9398C3.21702 13.7284 3.38793 13.5574 3.59937 13.5574H5.28478C5.49623 13.5574 5.66714 13.7284 5.66714 13.9398V15.6252ZM5.66714 11.2954C5.66714 11.5069 5.49623 11.6778 5.28478 11.6778H3.59937C3.38793 11.6778 3.21702 11.5069 3.21702 11.2954V9.61003C3.21702 9.39859 3.38793 9.22768 3.59937 9.22768H5.28478C5.49623 9.22768 5.66714 9.39859 5.66714 9.61003V11.2954ZM9.53961 15.6252C9.53961 15.8366 9.36831 16.0076 9.15726 16.0076H7.47146C7.2604 16.0076 7.08911 15.8366 7.08911 15.6252V13.9398C7.08911 13.7284 7.2604 13.5574 7.47146 13.5574H9.15726C9.36831 13.5574 9.53961 13.7284 9.53961 13.9398V15.6252ZM9.53961 11.2954C9.53961 11.5069 9.36831 11.6778 9.15726 11.6778H7.47146C7.2604 11.6778 7.08911 11.5069 7.08911 11.2954V9.61003C7.08911 9.39859 7.2604 9.22768 7.47146 9.22768H9.15726C9.36831 9.22768 9.53961 9.39859 9.53961 9.61003V11.2954ZM13.4117 15.6252C13.4117 15.8366 13.2408 16.0076 13.0293 16.0076H11.3439C11.1325 16.0076 10.9616 15.8366 10.9616 15.6252V13.9398C10.9616 13.7284 11.1325 13.5574 11.3439 13.5574H13.0293C13.2408 13.5574 13.4117 13.7284 13.4117 13.9398V15.6252ZM13.4117 11.2954C13.4117 11.5069 13.2408 11.6778 13.0293 11.6778H11.3439C11.1325 11.6778 10.9616 11.5069 10.9616 11.2954V9.61003C10.9616 9.39859 11.1325 9.22768 11.3439 9.22768H13.0293C13.2408 9.22768 13.4117 9.39859 13.4117 9.61003V11.2954ZM17.2842 15.6252C17.2842 15.8366 17.1129 16.0076 16.9018 16.0076H15.216C15.005 16.0076 14.8337 15.8366 14.8337 15.6252V13.9398C14.8337 13.7284 15.005 13.5574 15.216 13.5574H16.9018C17.1129 13.5574 17.2842 13.7284 17.2842 13.9398V15.6252ZM17.2842 11.2954C17.2842 11.5069 17.1129 11.6778 16.9018 11.6778H15.216C15.005 11.6778 14.8337 11.5069 14.8337 11.2954V9.61003C14.8337 9.39859 15.005 9.22768 15.216 9.22768H16.9018C17.1129 9.22768 17.2842 9.39859 17.2842 9.61003V11.2954Z" fill="#576ACA"/>
</svg>
