<svg width="14" height="15" viewBox="0 0 14 15" fill="none" xmlns="http://www.w3.org/2000/svg">
<mask id="path-1-inside-1_1_268" fill="white">
<path d="M9.09598 9.91069C10.6922 7.40602 10.4915 7.7185 10.5375 7.65319C11.1186 6.83353 11.4258 5.86881 11.4258 4.86328C11.4258 2.19668 9.26188 0 6.5918 0C3.93041 0 1.75781 2.19234 1.75781 4.86328C1.75781 5.86816 2.07141 6.85814 2.67158 7.68885L4.08756 9.91072C2.57364 10.1434 0 10.8367 0 12.3633C0 12.9198 0.363223 13.7128 2.09361 14.3308C3.30187 14.7623 4.89935 15 6.5918 15C9.75659 15 13.1836 14.1073 13.1836 12.3633C13.1836 10.8364 10.613 10.1438 9.09598 9.91069ZM3.40573 7.20542C3.4009 7.19786 3.39586 7.19048 3.39059 7.18321C2.89116 6.49614 2.63672 5.68187 2.63672 4.86328C2.63672 2.66549 4.40643 0.878906 6.5918 0.878906C8.77263 0.878906 10.5469 2.66628 10.5469 4.86328C10.5469 5.68318 10.2972 6.46983 9.82482 7.1388C9.78249 7.19464 10.0034 6.85151 6.5918 12.2048L3.40573 7.20542ZM6.5918 14.1211C3.13494 14.1211 0.878906 13.105 0.878906 12.3633C0.878906 11.8648 2.03813 11.0451 4.60687 10.7256L6.22119 13.2587C6.30188 13.3853 6.44162 13.4619 6.59177 13.4619C6.74191 13.4619 6.88169 13.3852 6.96234 13.2587L8.57663 10.7256C11.1454 11.0451 12.3047 11.8648 12.3047 12.3633C12.3047 13.0987 10.069 14.1211 6.5918 14.1211Z"/>
</mask>
<path d="M9.09598 9.91069C10.6922 7.40602 10.4915 7.7185 10.5375 7.65319C11.1186 6.83353 11.4258 5.86881 11.4258 4.86328C11.4258 2.19668 9.26188 0 6.5918 0C3.93041 0 1.75781 2.19234 1.75781 4.86328C1.75781 5.86816 2.07141 6.85814 2.67158 7.68885L4.08756 9.91072C2.57364 10.1434 0 10.8367 0 12.3633C0 12.9198 0.363223 13.7128 2.09361 14.3308C3.30187 14.7623 4.89935 15 6.5918 15C9.75659 15 13.1836 14.1073 13.1836 12.3633C13.1836 10.8364 10.613 10.1438 9.09598 9.91069ZM3.40573 7.20542C3.4009 7.19786 3.39586 7.19048 3.39059 7.18321C2.89116 6.49614 2.63672 5.68187 2.63672 4.86328C2.63672 2.66549 4.40643 0.878906 6.5918 0.878906C8.77263 0.878906 10.5469 2.66628 10.5469 4.86328C10.5469 5.68318 10.2972 6.46983 9.82482 7.1388C9.78249 7.19464 10.0034 6.85151 6.5918 12.2048L3.40573 7.20542ZM6.5918 14.1211C3.13494 14.1211 0.878906 13.105 0.878906 12.3633C0.878906 11.8648 2.03813 11.0451 4.60687 10.7256L6.22119 13.2587C6.30188 13.3853 6.44162 13.4619 6.59177 13.4619C6.74191 13.4619 6.88169 13.3852 6.96234 13.2587L8.57663 10.7256C11.1454 11.0451 12.3047 11.8648 12.3047 12.3633C12.3047 13.0987 10.069 14.1211 6.5918 14.1211Z" fill="white" fill-opacity="0.4"/>
<path d="M9.09598 9.91069L-345.095 -215.808L-691.156 327.221L-54.7042 425.037L9.09598 9.91069ZM10.5375 7.65319L-332.087 -235.263L-332.463 -234.733L-332.836 -234.203L10.5375 7.65319ZM2.67158 7.68885L356.861 -218.032L350.283 -228.354L343.115 -238.275L2.67158 7.68885ZM4.08756 9.91072L67.8809 425.038L704.351 327.23L358.277 -215.81L4.08756 9.91072ZM2.09361 14.3308L-139.166 409.863L-139.165 409.863L2.09361 14.3308ZM3.40573 7.20542L357.594 -218.518L357.414 -218.799L357.234 -219.08L3.40573 7.20542ZM3.39059 7.18321L343.297 -239.523L343.209 -239.643L343.122 -239.764L3.39059 7.18321ZM9.82482 7.1388L344.514 260.877L348.805 255.217L352.903 249.415L9.82482 7.1388ZM6.5918 12.2048L-347.596 237.928L6.59419 793.697L360.781 237.926L6.5918 12.2048ZM4.60687 10.7256L358.796 -214.996L216.153 -438.824L-47.235 -406.063L4.60687 10.7256ZM6.22119 13.2587L360.424 -212.441L360.417 -212.452L360.41 -212.463L6.22119 13.2587ZM6.96234 13.2587L-347.229 -212.46L-347.241 -212.44L-347.254 -212.42L6.96234 13.2587ZM8.57663 10.7256L60.4173 -406.063L-202.972 -438.824L-345.614 -214.993L8.57663 10.7256ZM363.287 235.629C363.703 234.976 364.004 234.504 364.215 234.172C364.474 233.766 364.496 233.732 364.478 233.76C364.46 233.788 364.411 233.865 364.342 233.973C364.28 234.07 364.149 234.275 363.979 234.54C363.828 234.774 363.501 235.284 363.081 235.933C362.731 236.474 361.848 237.836 360.702 239.566C359.714 241.058 357.184 244.865 353.819 249.639C351.957 252.282 349.792 255.288 347.343 258.576C344.832 261.947 342.71 264.689 341.266 266.534C340.667 267.299 340.179 267.916 340.177 267.919C340.045 268.086 340.431 267.598 340.838 267.08C341.911 265.714 343.475 263.705 345.334 261.251C349 256.41 351.928 252.325 353.911 249.509L-332.836 -234.203C-330.859 -237.01 -327.935 -241.09 -324.271 -245.927C-322.414 -248.38 -320.851 -250.386 -319.779 -251.751C-319.373 -252.268 -318.987 -252.757 -319.12 -252.588C-319.123 -252.585 -319.611 -251.967 -320.21 -251.202C-321.655 -249.355 -323.778 -246.611 -326.29 -243.239C-328.741 -239.95 -330.907 -236.942 -332.771 -234.296C-336.139 -229.518 -338.673 -225.705 -339.667 -224.204C-340.82 -222.464 -341.711 -221.089 -342.072 -220.53C-342.504 -219.864 -342.846 -219.332 -343.014 -219.069C-343.344 -218.555 -343.616 -218.129 -343.682 -218.026C-343.895 -217.692 -344.484 -216.766 -345.095 -215.808L363.287 235.629ZM353.162 250.569C404.124 178.69 431.426 92.8283 431.426 4.86328H-408.574C-408.574 -81.0907 -381.886 -165.023 -332.087 -235.263L353.162 250.569ZM431.426 4.86328C431.426 -226.258 244.711 -420 6.5918 -420V420C-226.187 420 -408.574 230.651 -408.574 4.86328H431.426ZM6.5918 -420C-230.786 -420 -418.242 -227 -418.242 4.86328H421.758C421.758 231.385 238.647 420 6.5918 420V-420ZM-418.242 4.86328C-418.242 93.2336 -390.643 180.473 -337.772 253.653L343.115 -238.275C394.786 -166.757 421.758 -81.4972 421.758 4.86328H-418.242ZM-351.518 233.41L-350.102 235.632L358.277 -215.81L356.861 -218.032L-351.518 233.41ZM-59.7058 -405.216C-78.3411 -402.353 -124.561 -394.307 -177.881 -369.126C-197.618 -359.805 -420 -255.941 -420 12.3633H420C420 141.959 361.904 239.732 307.193 298.237C257.836 351.019 206.688 378.219 180.833 390.43C129.179 414.824 85.0023 422.407 67.8809 425.038L-59.7058 -405.216ZM-420 12.3633C-420 113.456 -383.504 213.713 -313.347 292.544C-250.889 362.725 -180.623 395.057 -139.166 409.863L143.353 -381.201C183.079 -367.014 252.299 -335.387 314.143 -265.896C383.685 -187.755 420 -88.1727 420 12.3633H-420ZM-139.165 409.863C-80.7468 430.727 -28.77 435 6.5918 435V-405C24.9503 -405 44.851 -403.742 65.9627 -400.601C86.3625 -397.566 113.108 -392.003 143.352 -381.202L-139.165 409.863ZM6.5918 435C40.0887 435 91.8623 431.175 150.627 410.473C178.707 400.581 234.945 377.72 291.349 327.674C352.875 273.083 433.184 166.543 433.184 12.3633H-406.816C-406.816 -140.945 -326.937 -246.719 -266.151 -300.652C-210.489 -350.04 -155.305 -372.351 -128.478 -381.802C-72.218 -401.622 -23.7404 -405 6.5918 -405V435ZM433.184 12.3633C433.184 -255.76 211.098 -359.663 191.098 -369.111C137.724 -394.323 91.4584 -402.362 72.8961 -405.215L-54.7042 425.037C-71.7494 422.417 -115.972 414.84 -167.68 390.414C-193.573 378.183 -244.754 350.952 -294.124 298.115C-348.864 239.531 -406.816 141.791 -406.816 12.3633H433.184ZM357.234 -219.08C352.717 -226.144 348.062 -232.957 343.297 -239.523L-336.515 253.889C-341.27 247.338 -345.915 240.539 -350.423 233.491L357.234 -219.08ZM343.122 -239.764C395.832 -167.249 422.637 -81.2605 422.637 4.86328H-417.363C-417.363 92.6242 -390.049 180.242 -336.341 254.13L343.122 -239.764ZM422.637 4.86328C422.637 231.438 239.54 420.879 6.5918 420.879V-419.121C-230.728 -419.121 -417.363 -226.107 -417.363 4.86328H422.637ZM6.5918 420.879C-226.103 420.879 -409.453 231.699 -409.453 4.86328H430.547C430.547 -226.367 243.648 -419.121 6.5918 -419.121V420.879ZM-409.453 4.86328C-409.453 -80.9874 -382.886 -164.854 -333.253 -235.137L352.903 249.415C403.48 177.794 430.547 92.3537 430.547 4.86328H-409.453ZM-324.864 -246.6C-322.38 -249.876 -319.847 -253.118 -317.265 -256.323C-315.071 -259.047 -312.903 -261.652 -313.714 -260.672C-314.25 -260.024 -316.953 -256.765 -320.289 -252.524C-323.744 -248.133 -326.862 -243.988 -329.649 -240.163C-334.525 -233.471 -338.127 -228.096 -339.331 -226.295C-340.824 -224.062 -341.972 -222.298 -342.396 -221.647C-343.289 -220.272 -344.013 -219.138 -344.087 -219.024C-344.312 -218.672 -344.518 -218.349 -344.638 -218.161C-345.059 -217.5 -346.013 -216.002 -347.598 -213.516L360.781 237.926C362.608 235.059 363.25 234.051 363.581 233.531C363.649 233.424 363.579 233.535 363.452 233.733C363.385 233.838 363.234 234.074 363.035 234.383C362.863 234.651 362.469 235.264 361.959 236.049C361.555 236.67 360.421 238.414 358.937 240.632C357.744 242.417 354.147 247.783 349.276 254.469C346.492 258.291 343.375 262.433 339.923 266.822C336.588 271.061 333.887 274.318 333.352 274.964C332.543 275.942 334.712 273.335 336.908 270.609C339.492 267.402 342.027 264.157 344.514 260.877L-324.864 -246.6ZM360.78 -213.518L357.594 -218.518L-350.782 232.929L-347.596 237.928L360.78 -213.518ZM6.5918 -405.879C42.6592 -405.879 89.1785 -401.004 140.512 -383.136C163.993 -374.962 207.227 -357.667 253.629 -322.791C277.052 -305.186 313.143 -274.271 346.201 -226.564C379.49 -178.525 420.879 -96.4981 420.879 12.3633H-419.121C-419.121 220.933 -275.449 330.361 -251.058 348.693C-204.125 383.968 -160.111 401.656 -135.634 410.176C-82.3082 428.738 -32.9324 434.121 6.5918 434.121V-405.879ZM420.879 12.3633C420.879 171.042 335.04 271.227 301.159 305.821C259.035 348.831 216.654 373.539 190.458 386.711C136.055 414.067 87.1922 423.69 56.4487 427.514L-47.235 -406.063C-80.5472 -401.919 -131.274 -391.727 -186.899 -363.756C-213.706 -350.277 -256.537 -325.251 -298.958 -281.937C-333.137 -247.039 -419.121 -146.564 -419.121 12.3633H420.879ZM-349.582 236.447L-347.968 238.98L360.41 -212.463L358.796 -214.996L-349.582 236.447ZM-347.982 238.958C-270.762 360.143 -137.03 433.462 6.59177 433.462V-406.538C149.913 -406.538 283.366 -333.372 360.424 -212.441L-347.982 238.958ZM6.59177 433.462C150.215 433.462 283.958 360.14 361.179 238.937L-347.254 -212.42C-270.194 -333.37 -136.732 -406.538 6.59177 -406.538V433.462ZM361.153 238.977L362.768 236.444L-345.614 -214.993L-347.229 -212.46L361.153 238.977ZM-43.264 427.514C-74.0067 423.69 -122.868 414.068 -177.271 386.713C-203.467 373.541 -245.847 348.834 -287.972 305.825C-321.852 271.232 -407.695 171.046 -407.695 12.3633H432.305C432.305 -146.568 346.317 -247.044 312.138 -281.941C269.716 -325.254 226.886 -350.279 200.079 -363.758C144.454 -391.727 93.7288 -401.919 60.4173 -406.063L-43.264 427.514ZM-407.695 12.3633C-407.695 -96.3191 -366.437 -178.183 -333.374 -226.05C-300.486 -273.663 -264.562 -304.585 -241.17 -322.246C-194.818 -357.242 -151.57 -374.657 -127.915 -382.931C-76.2752 -400.993 -29.513 -405.879 6.5918 -405.879V434.121C46.1737 434.121 95.7924 428.724 149.419 409.967C174.067 401.345 218.092 383.537 264.972 348.142C289.343 329.742 432.305 220.355 432.305 12.3633H-407.695Z" fill="white" fill-opacity="0.4" mask="url(#path-1-inside-1_1_268)"/>
<path d="M6.5918 2.66602C5.38022 2.66602 4.39453 3.65171 4.39453 4.86328C4.39453 6.07485 5.38022 7.06055 6.5918 7.06055C7.80337 7.06055 8.78906 6.07485 8.78906 4.86328C8.78906 3.65171 7.80337 2.66602 6.5918 2.66602ZM6.5918 6.18164C5.86485 6.18164 5.27344 5.59022 5.27344 4.86328C5.27344 4.13634 5.86485 3.54492 6.5918 3.54492C7.31874 3.54492 7.91016 4.13634 7.91016 4.86328C7.91016 5.59022 7.31874 6.18164 6.5918 6.18164Z" fill="white" fill-opacity="0.4"/>
<path d="M6.5918 2.66602C5.38022 2.66602 4.39453 3.65171 4.39453 4.86328C4.39453 6.07485 5.38022 7.06055 6.5918 7.06055C7.80337 7.06055 8.78906 6.07485 8.78906 4.86328C8.78906 3.65171 7.80337 2.66602 6.5918 2.66602ZM6.5918 6.18164C5.86485 6.18164 5.27344 5.59022 5.27344 4.86328C5.27344 4.13634 5.86485 3.54492 6.5918 3.54492C7.31874 3.54492 7.91016 4.13634 7.91016 4.86328C7.91016 5.59022 7.31874 6.18164 6.5918 6.18164Z" stroke="white" stroke-opacity="0.4" stroke-width="420"/>
</svg>
