<svg width="18" height="18" viewBox="0 0 18 18" fill="none" xmlns="http://www.w3.org/2000/svg">
<g clip-path="url(#clip0_1_185)">
<path d="M9.00126 9.34695C11.5727 9.34695 13.6747 7.24492 13.6747 4.67348C13.6747 2.10203 11.5727 0 9.00126 0C6.42981 0 4.32782 2.10203 4.32782 4.67348C4.32782 7.24492 6.42985 9.34695 9.00126 9.34695Z" fill="#576ACA"/>
<path d="M17.0217 13.0816C16.8992 12.7755 16.736 12.4898 16.5523 12.2245C15.6135 10.8367 14.1646 9.91836 12.5319 9.69387C12.3279 9.67348 12.1034 9.71426 11.9401 9.83672C11.0829 10.4694 10.0625 10.7959 9.00129 10.7959C7.94004 10.7959 6.91965 10.4694 6.0625 9.83672C5.89922 9.71426 5.67473 9.65305 5.47067 9.69387C3.83801 9.91836 2.36864 10.8367 1.45028 12.2245C1.26661 12.4898 1.10332 12.7959 0.980903 13.0816C0.919692 13.2041 0.940083 13.347 1.00129 13.4694C1.16457 13.7551 1.36864 14.0409 1.55231 14.2857C1.83801 14.6735 2.14415 15.0204 2.4911 15.347C2.7768 15.6327 3.10332 15.898 3.42989 16.1633C5.04211 17.3674 6.9809 18 8.9809 18C10.9809 18 12.9197 17.3673 14.5319 16.1633C14.8584 15.9184 15.185 15.6327 15.4707 15.347C15.7972 15.0204 16.1238 14.6735 16.4095 14.2857C16.6136 14.0204 16.7973 13.7551 16.9605 13.4694C17.0625 13.347 17.0829 13.2041 17.0217 13.0816Z" fill="#576ACA"/>
</g>
<defs>
<clipPath id="clip0_1_185">
<rect width="18" height="18" fill="white"/>
</clipPath>
</defs>
</svg>
