<svg width="14" height="13" viewBox="0 0 14 13" fill="none" xmlns="http://www.w3.org/2000/svg">
<path d="M13.1019 6.49496C13.1019 8.2202 12.4165 9.87479 11.1966 11.0947C9.97667 12.3146 8.32208 13 6.59684 13C4.87159 13 3.21701 12.3146 1.99708 11.0947C0.777148 9.87479 0.0917969 8.2202 0.0917969 6.49496C0.0917969 6.30327 0.167947 6.11942 0.303495 5.98387C0.439043 5.84833 0.622885 5.77218 0.814579 5.77218C1.00627 5.77218 1.19012 5.84833 1.32566 5.98387C1.46121 6.11942 1.53736 6.30327 1.53736 6.49496C1.52979 7.6961 1.94697 8.86127 2.71522 9.78462C3.48346 10.708 4.55333 11.3301 5.73582 11.5411C6.91831 11.7521 8.13731 11.5384 9.1775 10.9377C10.2177 10.337 11.0121 9.38802 11.4204 8.25838C11.8287 7.12874 11.8246 5.89115 11.4089 4.76423C10.9931 3.63731 10.1925 2.69359 9.14834 2.09978C8.10423 1.50597 6.88383 1.30029 5.70276 1.51908C4.52169 1.73787 3.45595 2.36704 2.69381 3.29544H3.77799C3.96968 3.29544 4.15352 3.37159 4.28907 3.50714C4.42462 3.64269 4.50077 3.82653 4.50077 4.01822C4.50077 4.20992 4.42462 4.39376 4.28907 4.52931C4.15352 4.66486 3.96968 4.74101 3.77799 4.74101H1.22897C1.03728 4.74101 0.853438 4.66486 0.71789 4.52931C0.582342 4.39376 0.506192 4.20992 0.506192 4.01822V1.46921C0.506192 1.27752 0.582342 1.09368 0.71789 0.958127C0.853438 0.82258 1.03728 0.74643 1.22897 0.74643C1.42067 0.74643 1.60451 0.82258 1.74006 0.958127C1.87561 1.09368 1.95176 1.27752 1.95176 1.46921V1.95107C2.85569 1.02905 4.01356 0.3969 5.27795 0.135109C6.54234 -0.126683 7.85603 -0.00627136 9.05176 0.481011C10.2475 0.968293 11.2711 1.8004 11.9924 2.87138C12.7137 3.94236 13.0999 5.20376 13.1019 6.49496ZM6.59684 2.53411C6.40514 2.53411 6.2213 2.61026 6.08575 2.74581C5.95021 2.88136 5.87406 3.0652 5.87406 3.25689V6.49496C5.87406 6.68665 5.95021 6.87049 6.08575 7.00604C6.2213 7.14159 6.40514 7.21774 6.59684 7.21774H9.8349C10.0266 7.21774 10.2104 7.14159 10.346 7.00604C10.4815 6.87049 10.5577 6.68665 10.5577 6.49496C10.5577 6.30327 10.4815 6.11942 10.346 5.98387C10.2104 5.84833 10.0266 5.77218 9.8349 5.77218H7.31962V3.25689C7.31962 3.0652 7.24347 2.88136 7.10792 2.74581C6.97237 2.61026 6.78853 2.53411 6.59684 2.53411Z" fill="white" fill-opacity="0.4"/>
</svg>
